<?xml version="1.0" encoding="utf-8"?>
<!-- Generator: Adobe Illustrator 16.0.0, SVG Export Plug-In . SVG Version: 6.00 Build 0)  -->
<!DOCTYPE svg PUBLIC "-//W3C//DTD SVG 1.1//EN" "http://www.w3.org/Graphics/SVG/1.1/DTD/svg11.dtd">
<svg version="1.1" id="Layer_1" xmlns="http://www.w3.org/2000/svg" xmlns:xlink="http://www.w3.org/1999/xlink" x="0px" y="0px"
	 width="200px" height="200px" viewBox="0 0 64 64" enable-background="new 0 0 64 64" xml:space="preserve">
<g>
	<defs>
		<path id="SVGID_1_" d="M59.654,30.849c2.205,2.327,3.349,5.176,3.43,8.544c-0.041,3.489-1.244,6.438-3.609,8.845
			c-2.369,2.406-5.355,3.651-8.966,3.73H17.958c-4.253-0.121-7.803-1.604-10.65-4.452c-2.849-2.848-4.312-6.377-4.392-10.589
			c0.12-4.012,1.423-7.381,3.911-10.109c2.486-2.727,5.655-4.372,9.506-4.934c1.645-3.048,3.911-5.475,6.799-7.28
			c2.888-1.806,6.176-2.747,9.868-2.828c4.611,0.04,8.604,1.485,11.973,4.332c3.37,2.849,5.536,6.459,6.498,10.83
			C54.721,27.219,57.448,28.522,59.654,30.849z"/>
	</defs>
	<use xlink:href="#SVGID_1_"  overflow="visible" fill="#27AAE1"/>
	<clipPath id="SVGID_2_">
		<use xlink:href="#SVGID_1_"  overflow="visible"/>
	</clipPath>
</g>
</svg>
